<?xml version="1.0" encoding="UTF-8"?><svg id="Capa_2" xmlns="http://www.w3.org/2000/svg" viewBox="0 0 866.54 197.81"><defs><style>.cls-1{fill:#075da1;}.cls-2{fill:#148bb2;}.cls-3{fill:#16b8dd;}.cls-4{fill:#1ab8dd;}.cls-5{fill:#003c74;}.cls-6{fill:#183e6f;}</style></defs><g id="Capa_1-2"><g><g><g><path class="cls-5" d="M409.54,43.92v20.81c0,4.22,2.11,9.68,8.53,9.68s8.53-5.47,8.53-9.68v-19.1c0-.94,.76-1.71,1.71-1.71h2.89v21.53c0,7.86-5.71,13.28-13.14,13.28s-13.14-5.42-13.14-13.28v-21.53h4.6Z"/><path class="cls-5" d="M439.31,43.92h6.04l18.7,27.9h.1v-27c0-.5,.4-.9,.9-.9h3.7v33.94h-5.85l-18.89-27.9h-.1v27.9h-4.6V43.92Z"/><path class="cls-5" d="M480.53,43.92h3.01v33.94h-4.6V45.51c0-.88,.71-1.59,1.59-1.59Z"/><path class="cls-5" d="M490.56,43.92h5.32l9.97,27.62h.1l10.36-27.62h5.03l-13.38,33.94h-4.32l-13.09-33.94Z"/><path class="cls-5" d="M529.25,43.92h21.91v4.31h-17.31v10.12h16.11v4.32h-16.11v10.88h18.17v4.32h-22.77V43.92Z"/><path class="cls-5" d="M787.11,43.92h21.91v4.31h-17.31v10.12h16.11v4.32h-16.11v10.88h18.17v4.32h-22.77V43.92Z"/><path class="cls-5" d="M560.07,43.92h11.94c8.68,0,10.88,5.23,10.88,9.49s-3.21,8.39-8.34,8.97l9.64,15.49h-5.75l-8.63-14.96h-5.13v14.96h-4.6V43.92Zm4.6,14.96h6.04c3.64,0,7.29-.86,7.29-5.47s-3.64-5.47-7.29-5.47h-6.04v10.93Z"/><path class="cls-5" d="M594.21,70.77c1.63,2.49,4.46,3.64,7.19,3.64,3.02,0,6.76-1.92,6.76-5.66,0-7.81-16.73-2.97-16.73-16.2,0-3.98,3.36-9.49,11.51-9.49,3.69,0,7.24,.77,9.78,3.88l-3.74,3.4c-1.15-1.77-3.4-2.97-6.04-2.97-5.08,0-6.62,3.07-6.62,5.18,0,8.58,16.73,3.45,16.73,15.68,0,6.57-5.27,10.5-11.79,10.5-4.36,0-8.53-1.49-10.84-4.7l3.79-3.26Z"/><path class="cls-5" d="M621.85,43.92h3.38v33.94h-4.6V45.14c0-.67,.55-1.22,1.22-1.22Z"/><path class="cls-5" d="M633.96,43.92h11.84c14.33,0,17.83,10.69,17.83,16.97,0,8.68-6.47,16.97-18.6,16.97h-11.07V43.92Zm4.6,29.63h5.8c7.77,0,14.38-4.27,14.38-12.66,0-4.32-2.25-12.66-13.28-12.66h-6.9v25.31Z"/><path class="cls-5" d="M680.9,43.92h3.25l14.53,33.94h-5.37l-3.4-8.39h-16.16l-3.36,8.39h-5.37l14.59-33.1c.23-.51,.73-.84,1.29-.84Zm7.32,21.53l-6.33-15.58h-.1l-6.42,15.58h12.85Z"/><path class="cls-5" d="M704.41,43.92h11.84c14.33,0,17.83,10.69,17.83,16.97,0,8.68-6.47,16.97-18.6,16.97h-11.07V43.92Zm4.6,29.63h5.8c7.77,0,14.38-4.27,14.38-12.66,0-4.32-2.25-12.66-13.28-12.66h-6.9v25.31Z"/><path class="cls-5" d="M752,43.92h11.84c14.33,0,17.83,10.69,17.83,16.97,0,8.68-6.47,16.97-18.6,16.97h-11.07V43.92Zm4.6,29.63h5.8c7.77,0,14.38-4.27,14.38-12.66,0-4.32-2.25-12.66-13.28-12.66h-6.9v25.31Z"/></g><g><path class="cls-5" d="M453.37,149.29c-7.39,3.85-15.5,5.46-23.85,5.46-17.75,0-30.68-11.64-30.68-29.87s12.93-29.87,30.68-29.87c8.99,0,16.94,2.01,22.65,7.31l-8.83,9.64c-3.37-3.53-7.47-5.38-13.81-5.38-10.68,0-17.67,7.71-17.67,18.31s6.99,18.31,17.67,18.31c5.46,0,9.48-1.53,11.8-2.81v-9.23h-10.2v-8.28c0-1.81,1.47-3.28,3.28-3.28h18.96v29.71Z"/><path class="cls-5" d="M512.31,131.38c0,13.41-8.19,23.37-23.93,23.37s-24.01-9.96-24.01-23.37v-34.93h12.53v34.45c0,6.99,4.82,12.29,11.48,12.29s11.4-5.3,11.4-12.29v-32c0-1.35,1.1-2.45,2.45-2.45h10.07v34.93Z"/><path class="cls-5" d="M543.17,96.45h8.24l24.73,56.85h-14.13l-4.9-12.05h-22.08l-4.74,12.05h-13.81l23.73-54.91c.51-1.18,1.67-1.94,2.96-1.94Zm2.7,16.54l-6.91,17.67h13.89l-6.99-17.67Z"/><path class="cls-5" d="M588.44,129.05l-21.36-32.6h15.58l12.05,21.28,12.21-20.34c.35-.58,.98-.94,1.65-.94h13.76l-21.36,32.6v24.25h-12.53v-24.25Z"/><path class="cls-5" d="M639.92,96.45h8.27l24.73,56.85h-14.13l-4.9-12.05h-22.08l-4.74,12.05h-13.81l23.74-54.94c.5-1.16,1.65-1.92,2.92-1.92Zm2.73,16.54l-6.91,17.67h13.89l-6.99-17.67Z"/><path class="cls-5" d="M740.86,153.3h-34.45c-17.75,0-30.84-10.84-30.84-29.15,0-17.18,13.49-29.15,30.35-29.15s30.35,12.05,30.35,29.15c0,8.03-3.53,15.9-11.32,19.35v.16h15.9v9.64Zm-34.93-11.56c9.56,0,17.35-7.79,17.35-17.59s-7.79-17.59-17.35-17.59-17.35,7.79-17.35,17.59,7.79,17.59,17.35,17.59Z"/><path class="cls-5" d="M794.99,131.38c0,13.41-8.19,23.37-23.93,23.37s-24.01-9.96-24.01-23.37v-34.93h12.53v34.45c0,6.99,4.82,12.29,11.48,12.29s11.4-5.3,11.4-12.29v-32.1c0-1.3,1.05-2.35,2.35-2.35h10.18v34.93Z"/><path class="cls-5" d="M808.85,96.45h10.07v56.85h-12.53v-54.4c0-1.36,1.1-2.46,2.46-2.46Z"/><path class="cls-5" d="M830.81,96.45h12.53v45.29h23.21v11.56h-35.73v-56.85Z"/></g></g><g><g><path class="cls-6" d="M126.57,125.94v2.92c0,10.15-2.12,20.19-6.4,29.33-.95,2.03-2.01,4.02-3.17,5.95-7.19,11.94-17.08,20.3-28.78,25.69-11.05-5.09-20.47-12.84-27.5-23.86-1.59-2.49-3-5.08-4.23-7.75-4.17-9.06-6.25-19.01-6.25-29.06v-3.23c1.54,11.57,8.24,21.53,17.7,27.47,5.93,3.73,12.95,5.88,20.47,5.88s14.54-2.16,20.47-5.88c9.46-5.95,16.15-15.9,17.7-27.47Z"/><path class="cls-2" d="M108.76,196.1c-6.5,1.17-13.32,1.71-20.35,1.71s-14.01-.54-20.59-1.71h0c-6.17-1.08-12.05-2.72-17.57-4.98-12.33-5.04-22.82-13.16-30.46-25.15-6.99-10.96-10.48-23.8-10.48-36.81V63.25c0,13,3.49,25.84,10.48,36.81,7.65,11.99,18.13,20.11,30.46,25.15v3.97c0,10.05,2.08,19.99,6.25,29.06,1.23,2.67,2.64,5.26,4.23,7.75,7.03,11.02,16.45,18.76,27.5,23.86,.97,.45,1.96,.88,2.96,1.29,5.52,2.26,11.4,3.89,17.57,4.98Z"/><path class="cls-1" d="M167.52,62.94v65.92c0,12.4-3.17,24.66-9.57,35.29-7.72,12.82-18.54,21.5-31.37,26.83-5.59,2.32-11.56,4.01-17.82,5.13-6.17-1.08-12.05-2.72-17.57-4.98-1-.41-1.99-.84-2.96-1.29,11.7-5.39,21.6-13.75,28.78-25.69,1.17-1.94,2.22-3.92,3.17-5.95,4.27-9.14,6.4-19.19,6.4-29.33v-3.81c12.83-5.33,23.66-14.01,31.37-26.83,6.4-10.62,9.57-22.89,9.57-35.29Z"/><path class="cls-3" d="M50.24,.24V125.2c-12.33-5.04-22.82-13.16-30.46-25.15-6.99-10.96-10.48-23.8-10.48-36.81v-20.67H4.2c-2.32,0-4.2-1.88-4.2-4.2V.24H50.24Z"/><path class="cls-3" d="M167.52,.24V62.94c0,12.4-3.17,24.66-9.57,35.29-7.72,12.82-18.54,21.5-31.37,26.83V9.06c0-4.87,3.95-8.82,8.82-8.82h32.12Z"/></g><g><path class="cls-6" d="M332.96,24.14l-14.39,15.7-2.5,2.72-9.55,10.42-2.75,2.99c-2.2-2.3-4.49-4.39-6.92-6.25-3.82-2.95-7.98-5.35-12.61-7.17-1.03-.41-2.08-.79-3.17-1.13-6.58-2.15-14.1-3.23-22.94-3.23-14.68,0-27.24,4.41-36.91,12.07-9.04,7.17-16.14,17.64-19.48,29.57,0-.01,0-.02-.02-.03,.09-.55,.19-1.1,.28-1.65,1.46-8.25,3.83-15.95,7.01-23.07,11.8-26.51,34.76-44.76,64.14-51.83,1.81-.44,3.66-.83,5.52-1.19,.97-.18,1.94-.34,2.91-.5,10.47,1.49,20.28,4.11,29.23,8.09,8.16,3.63,15.59,8.4,22.13,14.48Z"/><path class="cls-2" d="M296.45,150.27v43.37c-4.65,.96-9.35,1.72-14.09,2.3,0,0-.02,0-.03,0-7.97,.99-16.05,1.46-24.2,1.46-13.86,0-26.83-2.15-38.56-6.22-23.68-8.24-42.28-24.33-52.9-46.48-3.31-6.87-5.84-14.34-7.5-22.34-.22-.99-.42-1.99-.6-3-1.17-6.56-1.79-13.45-1.79-20.66,0-6.72,.53-13.16,1.56-19.31,1.27,7.67,3.32,14.87,6.06,21.57,.65,1.58,1.33,3.12,2.05,4.64,.86,1.87,1.8,3.69,2.82,5.46,7.24,12.99,17.4,23.66,29.81,31.59,4.32,2.76,8.92,5.2,13.76,7.27h0c10.34,4.43,21.79,7.29,34.08,8.35,3.58,.6,7.32,.9,11.21,.9,4.24,0,8.22-.28,11.91-.76,4.2-.55,8.04-1.35,11.52-2.3,6.13-1.69,11.12-3.84,14.89-5.86Z"/><path class="cls-4" d="M345.99,85.02v39.11c0,2.84-2.22,5.13-4.96,5.13h-3.55v49.76l-.55,.32c-.1,.05-.2,.1-.3,.14-.13,.08-.26,.14-.39,.2-12.69,6.55-26.03,11.1-39.8,13.94v-64.4l-17.05,.19c-2.46,.04-4.47-1.47-4.47-4.02,0,0,2.91-16.43,31.74-16.43,8.23,0,14.88,.95,14.88,.95,0,0-2.87-2.79-4.98-4.91-2.5-2.5-4.12-2.56-4.5-2.9,10.7,.03,26.98-7.09,33.93-17.09Z"/><path class="cls-1" d="M281.6,1.57c-.98,.15-1.95,.31-2.91,.5-1.87,.35-3.71,.75-5.52,1.19-29.4,7.06-52.35,25.31-64.15,51.82-3.18,7.12-5.55,14.82-7.01,23.07-.1,.55-.2,1.09-.28,1.64-.3,1.77-.55,3.56-.75,5.37-.5,4.37-.75,8.89-.75,13.53s.25,9.14,.75,13.51c.51,2.7,1.16,5.35,1.97,7.88,6.41,20.21,22.16,34.55,43.97,38.19-12.29-1.08-23.75-3.93-34.08-8.36-4.84-2.07-9.44-4.5-13.76-7.27-12.41-7.93-22.57-18.6-29.81-31.58-1.01-1.77-1.95-3.59-2.82-5.47-.73-1.52-1.41-3.06-2.05-4.64-2.73-6.71-4.79-13.91-6.06-21.58,2-11.99,5.88-22.87,11.36-32.46,.12-.2,.22-.4,.35-.6C185.39,19.94,212.96,3.45,246.93,.48c3.66-.33,7.39-.48,11.2-.48,4.29,0,8.5,.13,12.6,.43l10.87,1.14Z"/><path class="cls-6" d="M346.52,58.89c-.02-.58-.73-.87-.92-.4-6.38,15.63-28.9,17.61-41.78,22.9-13.56,5.58-26.59,15.12-32.26,28.69-.68,.62-1.5,1.65-1.28,.29,4.95-14.25,17.52-25.33,30.65-30.22,2.9-1.13,9.03-3.1,12.76-4.17,8.77-2.5,15.77-5.31,15.77-5.31,0,0-7.52,1.86-20.39,5.1-10.42,2.62-20.7,6.77-28.63,14.37-5.95,5.7-10.28,13.63-12.07,22.01-.06,.19-.08,.38-.13,.57-.39,2.15-.77,5.99-.61,8.11,0,0,0,.11,.02,.16,.01,.03,.03,.06,.05,.08,.58,3.51,1.48,.62,1.48,.62,0,0,.2-.49,.5-1.29,8.7-14.41,21.11-17.32,37.91-14.74,.31,.05,.5-.49,.25-.73-2.32-2.18-5.73-3.22-8.4-4.03,11.3-2.9,21.67-4.3,30-9.42,10.43-6.41,17.41-19.59,17.08-32.3,0-.1,0-.2,0-.29Z"/></g></g></g></g></svg>